<?xml version="1.0" encoding="UTF-8"?>
<svg id="Layer_2" xmlns="http://www.w3.org/2000/svg" viewBox="0 0 1101.83 805.89">
  <defs>
    <style>
      .cls-1 {
        fill: #1d336f;
      }

      .cls-2 {
        fill: #ff9d1b;
      }
    </style>
  </defs>
  <g id="Layer_1-2" data-name="Layer_1">
    <g>
      <path class="cls-1" d="M267.12,58.93c2.26-3.74,11.29-18.19,28.22-31.88,7.91-6.4,25.66-20.95,50.76-24.68,8.02-1.19,20.19-1.74,24.64-1.94,12.09-.54,23.28-.44,29.88-.38,6.4.06,17.91.26,17.91.26-.01.1-3.89,34.98-5.15,46.28-1.12,9.95-2.06,18.14-2.93,25.48-2.87,24.18-5.67,46.84-7.37,60.41-10.03,80.18-9.7,79.03-12.76,101.56-3.27,24.06-6.95,49.65-6.95,49.65-2.4,16.7-6.05,41.66-6.06,41.73,0,0-1.93,18.56-3.68,34.86-.67,6.29-1.68,15.58-2.94,27,15.3-11.74,74.11-56.3,129.56-83.82,10.05-4.99,50.07-24.35,76.52-33.94,2.75-1,11.69-4.19,23.59-9.26,11.51-4.9,20.67-9.39,26.5-12.34.52-3.77,1.35-10.01,2.21-17.78.84-7.51,1.33-13.06,1.47-14.62,1.07-11.81,5.13-49.81,9.58-81.75,4.9-35.15,7.35-52.73,11.76-62.5,14.74-32.68,40-48.98,45.64-52.45,24.09-14.85,47.68-16.5,59.99-17.36,8.82-.62,11.5.04,49.9,0,11.17-.01,20.32-.08,26.29-.13-.68,8.82-1.76,22.26-3.31,38.7-1.21,12.8-2.41,24.18-4.78,46.42-3.36,31.56-5.04,47.34-5.14,48.31-5.26,48.18-8.29,63.85-18.42,144.64-12.54,100.02-12.13,104.33-23.55,192.95-3.62,28.09-12.51,96.36-12.51,96.36,0,0-16.69,123.77-16.69,123.78,0,0,0,.03,0,.03-5.39,19.05-13.31,47.05-34.14,69-8.93,9.4-18.03,15.39-26.57,21-3.35,2.21-12.36,8.12-22.22,12.57-9.49,4.28-22.04,8.21-71.9,9.77-8.89.28-21.33.56-36.32.51,2.06-14.48,7.87-55.64,12.75-95.3,1.19-9.65,3.1-25.39,5.29-45.74,4.3-39.92,3.68-41.94,6.7-66.42,4.23-34.29,5.67-32.15,8.88-62.27,1.9-17.83,2.34-27.45,5.15-50.65,1.71-14.15,3.39-25.77,4.58-33.63,1.14-6.48,2.74-16.26,4.25-28.27,1.23-9.8,1.74-15.84,2.48-23.05,1.03-10.03,2.74-24.43,5.62-42.33-9.77,4.06-22.12,9.6-36.07,16.89-5.48,2.86-23.98,12.85-47.15,28.32-45.18,30.18-78.69,63.62-82.67,67.63-19.25,19.39-56.79,57.23-78.51,104.69-8.25,18.02-15.71,39.55-15.71,39.55-1.8,5.19-8.01,23.41-13.98,48.24-1.3,5.42-5.58,23.58-9.34,48.18-1.63,10.69-2.27,16.7-5.71,48.16-1.53,13.98-3.72,33.95-5.08,46.25-4.55,0-11.37-.01-19.67,0-27.45.05-31.76.26-46.13.26-28.47,0-31.05-.82-57.87-.77-14.81.03-26.82.3-34.39.51,6.12-47.27,10.54-83.2,13.53-107.99,1.94-16.05,4.12-34.47,7.61-61.71,1.9-14.88,2.89-22.07,6.13-47.31,3.89-30.3,4.09-32.45,6.13-48.34,5-38.85,6.18-45.23,11.79-88.82,2.79-21.65,4.23-32.46,5.63-44.89,4.47-39.71,6.46-64.67,13.74-123.42,6.1-49.22,12.76-96.68,12.76-96.68,3.71-26.42,4.66-31.82,5.98-41.02,1-6.97,1.62-11.9,1.88-13.83,3.02-22.94,4.61-35.05,9.08-48.29,3.93-11.66,8.75-20.21,11.29-24.4Z"/>
      <path class="cls-1" d="M538.32,685.47c21.8-.35,197.02-5.37,343.54-117.13,13.13-10.01,74.14-57.58,117.26-138.09,21.27-39.71,27.84-68.11,26.02-96.27-.89-13.84-3.72-46.38-28.79-75.06-31.07-35.55-73.94-39.43-83.59-40.06,85.8,4.53,158.28,45.51,180.91,106.9,15.62,42.37,4.78,87.15.46,104.99-10.53,43.5-32.25,76.51-58.32,107.2-99.93,117.62-221.01,171.62-239.84,179.78-62.65,27.15-228.41,96.42-429.43,45.23-59.01-15.03-209.68-53.4-302.13-190.5C43.58,541.57-.13,476.74,0,387.44.25,212.61,168.32,107.52,183.65,98.26c-15.11,12.11-122.59,101.16-120.6,241.68,1.82,128.08,93.27,207.39,131.73,240.74,124.85,108.27,276.99,105.85,343.54,104.79Z"/>
      <path class="cls-2" d="M839.25.14c-.74,8.97-1.9,22.64-3.53,39.35-1.29,13-2.58,24.58-5.1,47.19-3.59,32.1-5.38,48.14-5.5,49.12-2.98,26.21-5.31,42.95-8.48,65.41-2.7,19.57-6.08,43.44-11.12,81.66-72.81,11.83-187.55,40.09-308.26,115.02-169.83,105.47-258.24,245.46-296.49,316.12,17.65-56.62,56.99-156.79,145.1-254.14,91.85-101.48,192.41-150.96,247.87-173.56,5.23-1.27,17.25-5.02,23.65-15.9,4.55-7.73,4.69-15.45,4.7-18.7.05-13.54,3.66-48,10.86-116.92,3.34-31.91,5.1-47.82,12.53-63.53,15.73-33.24,42.64-49.8,48.63-53.33,25.68-15.11,50.81-16.77,63.93-17.66,9.4-.61,12.26.03,53.18,0,11.89,0,21.63-.06,28.02-.12Z"/>
      <path class="cls-1" d="M157.45,805.89c53.59-.52,107.18-1.03,160.77-1.55,18.09-58.65,45.98-124.32,89.66-190.14,175.23-264.08,472.75-332.15,564.25-349.37-72.98,2.71-537.09,26.66-742.02,364.83-27.76,45.81-54.72,103.91-72.66,176.23Z"/>
    </g>
  </g>
</svg>